<svg xmlns="http://www.w3.org/2000/svg" viewBox="0 0 512.002 512.002" fill="#fff"><path d="M467.307 268.393c-11.15 0-20.188 9.04-20.188 20.188v9.422H420.2v-9.777c0-11.15-8.763-19.833-19.913-19.833h-35.26l3.893-2.304c4.307-2.353 7.61-6.28 9.29-10.892l65.272-179.054c5.186-14.22 4.522-29.63-1.867-43.35s-17.74-24.146-31.96-29.33c-14.218-5.187-29.607-4.527-43.33 1.86-13.72 6.39-24.135 17.736-29.32 31.957l-65.27 179.008c-1.68 4.61-1.626 9.852.158 14.425l14.62 37.68h-96.177c-11.15 0-20.474 8.685-20.474 19.834v9.777h-78.39c-36.925 0-66.966 29.59-66.966 65.964v127.846c0 11.15 9.04 20.188 20.188 20.188h74.024c11.15 0 20.188-9.04 20.188-20.188v-79.408h31.258c.19 10.984 9.14 20.188 20.17 20.188h209.95c11.03 0 19.98-9.205 20.17-20.188h26.662v9.42c0 11.15 9.04 20.19 20.188 20.19s20.188-9.04 20.188-20.19V288.584c.003-11.15-9.034-20.19-20.185-20.19zM169.863 372.027H118.72c-11.15 0-20.19 9.04-20.19 20.188v79.408H64.884V363.966c0-14.108 11.927-25.587 26.59-25.587h78.39v33.647zm205.08-320.923c3.076-8.436 12.443-12.798 20.882-9.72 4.087 1.49 7.35 4.484 9.187 8.427 1.837 3.944 2.027 8.368.537 12.456L348.024 220.03l-30.607-11.16 57.524-157.766zm4.88 341.11H210.24V308.77h169.583v83.445zm67.295-20.187H420.2V338.38h26.918v33.647z"/></svg>
